<?xml version="1.0" encoding="UTF-8"?>
<svg xmlns="http://www.w3.org/2000/svg" xmlns:xlink="http://www.w3.org/1999/xlink" width="272.992pt" height="179.654pt" viewBox="0 0 272.992 179.654">
<defs>
<g>
<g id="glyph-0-0">
<path d="M 5.78125 -2.5625 L 5.53125 -2.5625 C 5.421875 -1.546875 5.28125 -0.3125 3.53125 -0.3125 L 2.71875 -0.3125 C 2.25 -0.3125 2.234375 -0.375 2.234375 -0.703125 L 2.234375 -6 C 2.234375 -6.34375 2.234375 -6.484375 3.1875 -6.484375 L 3.515625 -6.484375 L 3.515625 -6.78125 C 3.15625 -6.75 2.25 -6.75 1.84375 -6.75 C 1.453125 -6.75 0.671875 -6.75 0.328125 -6.78125 L 0.328125 -6.484375 L 0.5625 -6.484375 C 1.328125 -6.484375 1.34375 -6.375 1.34375 -6.015625 L 1.34375 -0.78125 C 1.34375 -0.421875 1.328125 -0.3125 0.5625 -0.3125 L 0.328125 -0.3125 L 0.328125 0 L 5.5 0 Z M 5.78125 -2.5625 "/>
</g>
<g id="glyph-0-1">
<path d="M 7.21875 0 L 7.21875 -0.3125 L 7.03125 -0.3125 C 6.515625 -0.3125 6.296875 -0.359375 6.09375 -0.671875 L 4 -3.828125 L 5.359375 -5.828125 C 5.578125 -6.15625 5.90625 -6.46875 6.796875 -6.484375 L 6.796875 -6.78125 L 5.6875 -6.75 C 5.296875 -6.75 4.8125 -6.75 4.421875 -6.78125 L 4.421875 -6.484375 C 4.8125 -6.46875 5.03125 -6.25 5.03125 -6.015625 C 5.03125 -5.921875 5.015625 -5.90625 4.953125 -5.796875 L 3.8125 -4.109375 L 2.53125 -6.03125 C 2.515625 -6.0625 2.46875 -6.140625 2.46875 -6.1875 C 2.46875 -6.296875 2.6875 -6.46875 3.109375 -6.484375 L 3.109375 -6.78125 C 2.765625 -6.75 2.03125 -6.75 1.65625 -6.75 L 0.375 -6.78125 L 0.375 -6.484375 L 0.5625 -6.484375 C 1.109375 -6.484375 1.296875 -6.40625 1.484375 -6.125 L 3.3125 -3.375 L 1.671875 -0.96875 C 1.546875 -0.765625 1.25 -0.3125 0.234375 -0.3125 L 0.234375 0 L 1.34375 -0.03125 C 1.703125 -0.03125 2.25 -0.03125 2.609375 0 L 2.609375 -0.3125 C 2.15625 -0.3125 1.984375 -0.59375 1.984375 -0.765625 C 1.984375 -0.859375 2.015625 -0.890625 2.09375 -1 L 3.5 -3.09375 L 5.0625 -0.71875 C 5.09375 -0.671875 5.125 -0.640625 5.125 -0.609375 C 5.125 -0.484375 4.90625 -0.3125 4.46875 -0.3125 L 4.46875 0 C 4.8125 -0.03125 5.546875 -0.03125 5.921875 -0.03125 Z M 7.21875 0 "/>
</g>
<g id="glyph-0-2">
<path d="M 4.15625 0 L 4.15625 -0.3125 L 3.84375 -0.3125 C 2.953125 -0.3125 2.921875 -0.421875 2.921875 -0.78125 L 2.921875 -6.359375 C 2.921875 -6.59375 2.921875 -6.625 2.6875 -6.625 C 2.078125 -5.984375 1.203125 -5.984375 0.890625 -5.984375 L 0.890625 -5.671875 C 1.078125 -5.671875 1.671875 -5.671875 2.1875 -5.9375 L 2.1875 -0.78125 C 2.1875 -0.421875 2.15625 -0.3125 1.265625 -0.3125 L 0.9375 -0.3125 L 0.9375 0 C 1.296875 -0.03125 2.15625 -0.03125 2.546875 -0.03125 C 2.953125 -0.03125 3.8125 -0.03125 4.15625 0 Z M 4.15625 0 "/>
</g>
<g id="glyph-0-3">
<path d="M 1.90625 -0.53125 C 1.90625 -0.8125 1.671875 -1.046875 1.375 -1.046875 C 1.09375 -1.046875 0.859375 -0.8125 0.859375 -0.53125 C 0.859375 -0.234375 1.09375 0 1.375 0 C 1.671875 0 1.90625 -0.234375 1.90625 -0.53125 Z M 1.90625 -0.53125 "/>
</g>
<g id="glyph-0-4">
<path d="M 7.328125 -6.484375 L 7.328125 -6.78125 C 7.03125 -6.765625 6.625 -6.75 6.359375 -6.75 L 5.21875 -6.78125 L 5.21875 -6.484375 C 5.625 -6.484375 5.78125 -6.296875 5.78125 -6.09375 C 5.78125 -5.984375 5.71875 -5.859375 5.6875 -5.796875 L 4.046875 -3.125 L 2.25 -6.0625 C 2.171875 -6.15625 2.171875 -6.1875 2.171875 -6.234375 C 2.171875 -6.4375 2.421875 -6.484375 2.875 -6.484375 L 2.875 -6.78125 C 2.515625 -6.75 1.78125 -6.75 1.40625 -6.75 L 0.109375 -6.78125 L 0.109375 -6.484375 L 0.28125 -6.484375 C 0.96875 -6.484375 1.046875 -6.375 1.203125 -6.109375 L 3.296875 -2.71875 L 3.296875 -0.78125 C 3.296875 -0.421875 3.265625 -0.3125 2.5 -0.3125 L 2.265625 -0.3125 L 2.265625 0 C 2.625 -0.03125 3.328125 -0.03125 3.71875 -0.03125 C 4.109375 -0.03125 4.8125 -0.03125 5.171875 0 L 5.171875 -0.3125 L 4.9375 -0.3125 C 4.171875 -0.3125 4.140625 -0.40625 4.140625 -0.796875 L 4.140625 -2.71875 L 6.0625 -5.828125 C 6.421875 -6.4375 7.015625 -6.484375 7.328125 -6.484375 Z M 7.328125 -6.484375 "/>
</g>
<g id="glyph-1-0">
<path d="M 0.84375 -0.4375 C 0.828125 -0.34375 0.78125 -0.171875 0.78125 -0.15625 C 0.78125 0 0.90625 0.0625 1.015625 0.0625 C 1.140625 0.0625 1.25 -0.015625 1.28125 -0.078125 C 1.328125 -0.140625 1.375 -0.375 1.40625 -0.515625 C 1.453125 -0.640625 1.515625 -0.96875 1.5625 -1.140625 C 1.609375 -1.296875 1.640625 -1.453125 1.6875 -1.609375 C 1.765625 -1.890625 1.765625 -1.953125 1.96875 -2.234375 C 2.171875 -2.515625 2.5 -2.875 3.015625 -2.875 C 3.421875 -2.875 3.421875 -2.515625 3.421875 -2.390625 C 3.421875 -1.96875 3.125 -1.203125 3.015625 -0.90625 C 2.9375 -0.703125 2.90625 -0.640625 2.90625 -0.53125 C 2.90625 -0.15625 3.21875 0.0625 3.578125 0.0625 C 4.265625 0.0625 4.578125 -0.890625 4.578125 -1 C 4.578125 -1.078125 4.484375 -1.078125 4.46875 -1.078125 C 4.359375 -1.078125 4.359375 -1.046875 4.328125 -0.96875 C 4.171875 -0.40625 3.875 -0.125 3.59375 -0.125 C 3.453125 -0.125 3.421875 -0.21875 3.421875 -0.375 C 3.421875 -0.53125 3.453125 -0.625 3.578125 -0.9375 C 3.671875 -1.140625 3.953125 -1.890625 3.953125 -2.28125 C 3.953125 -2.953125 3.40625 -3.0625 3.046875 -3.0625 C 2.46875 -3.0625 2.078125 -2.71875 1.875 -2.4375 C 1.828125 -2.90625 1.40625 -3.0625 1.125 -3.0625 C 0.828125 -3.0625 0.671875 -2.84375 0.578125 -2.6875 C 0.421875 -2.4375 0.328125 -2.03125 0.328125 -2 C 0.328125 -1.90625 0.421875 -1.90625 0.4375 -1.90625 C 0.546875 -1.90625 0.546875 -1.9375 0.59375 -2.125 C 0.703125 -2.53125 0.828125 -2.875 1.109375 -2.875 C 1.28125 -2.875 1.328125 -2.71875 1.328125 -2.53125 C 1.328125 -2.40625 1.265625 -2.140625 1.21875 -1.953125 C 1.171875 -1.765625 1.109375 -1.484375 1.078125 -1.328125 Z M 0.84375 -0.4375 "/>
</g>
<g id="glyph-2-0">
<path d="M 4.84375 -2.75 C 4.90625 -2.9375 4.921875 -3.0625 4.921875 -3.328125 C 4.921875 -3.96875 4.53125 -4.390625 3.78125 -4.390625 C 3 -4.390625 2.484375 -3.875 2.25 -3.53125 C 2.203125 -4.09375 1.78125 -4.390625 1.328125 -4.390625 C 0.875 -4.390625 0.6875 -4 0.59375 -3.828125 C 0.421875 -3.484375 0.28125 -2.890625 0.28125 -2.859375 C 0.28125 -2.765625 0.390625 -2.765625 0.40625 -2.765625 C 0.5 -2.765625 0.515625 -2.765625 0.578125 -2.984375 C 0.75 -3.703125 0.9375 -4.171875 1.296875 -4.171875 C 1.46875 -4.171875 1.609375 -4.09375 1.609375 -3.71875 C 1.609375 -3.515625 1.578125 -3.40625 1.453125 -2.875 L 0.875 -0.59375 C 0.84375 -0.4375 0.78125 -0.203125 0.78125 -0.15625 C 0.78125 0.015625 0.921875 0.109375 1.078125 0.109375 C 1.1875 0.109375 1.375 0.03125 1.4375 -0.171875 C 1.453125 -0.1875 1.5625 -0.65625 1.625 -0.90625 L 1.84375 -1.796875 C 1.90625 -2.015625 1.96875 -2.234375 2.015625 -2.46875 C 2.03125 -2.53125 2.109375 -2.859375 2.125 -2.90625 C 2.15625 -3 2.46875 -3.5625 2.796875 -3.828125 C 3.015625 -3.984375 3.328125 -4.171875 3.75 -4.171875 C 4.1875 -4.171875 4.296875 -3.828125 4.296875 -3.484375 C 4.296875 -3.421875 4.296875 -3.25 4.1875 -2.859375 L 3.0625 1.71875 C 3.03125 1.84375 3.03125 1.859375 3.03125 1.875 C 3.03125 2.03125 3.140625 2.140625 3.3125 2.140625 C 3.625 2.140625 3.6875 1.859375 3.71875 1.75 Z M 4.84375 -2.75 "/>
</g>
</g>
</defs>
<path fill="none" stroke-width="0.3985" stroke-linecap="butt" stroke-linejoin="miter" stroke="rgb(0%, 0%, 0%)" stroke-opacity="1" stroke-miterlimit="10" d="M -6.434859 -6.724608 L 6.433627 -6.724608 L 6.433627 6.723116 L -6.434859 6.723116 Z M -6.434859 -6.724608 " transform="matrix(0.998078, 0, 0, -0.998078, 8.867802, 73.354724)"/>
<g fill="rgb(0%, 0%, 0%)" fill-opacity="1">
<use xlink:href="#glyph-0-0" x="5.759788" y="76.750185"/>
</g>
<path fill="none" stroke-width="0.3985" stroke-linecap="butt" stroke-linejoin="miter" stroke="rgb(0%, 0%, 0%)" stroke-opacity="1" stroke-miterlimit="10" d="M 75.492154 21.622851 L 94.587453 21.622851 L 94.587453 35.070575 L 75.492154 35.070575 Z M 75.492154 21.622851 " transform="matrix(0.998078, 0, 0, -0.998078, 8.867802, 73.354724)"/>
<g fill="rgb(0%, 0%, 0%)" fill-opacity="1">
<use xlink:href="#glyph-0-1" x="87.528308" y="48.458672"/>
<use xlink:href="#glyph-0-2" x="94.985925" y="48.458672"/>
</g>
<path fill="none" stroke-width="0.3985" stroke-linecap="butt" stroke-linejoin="miter" stroke="rgb(100%, 100%, 100%)" stroke-opacity="1" stroke-miterlimit="10" d="M 80.333492 -10.822329 L 89.746116 -10.822329 L 89.746116 10.820837 L 80.333492 10.820837 Z M 80.333492 -10.822329 " transform="matrix(0.998078, 0, 0, -0.998078, 8.867802, 73.354724)"/>
<g fill="rgb(0%, 0%, 0%)" fill-opacity="1">
<use xlink:href="#glyph-0-3" x="92.361001" y="72.887624"/>
</g>
<g fill="rgb(0%, 0%, 0%)" fill-opacity="1">
<use xlink:href="#glyph-0-3" x="92.361001" y="76.864964"/>
</g>
<g fill="rgb(0%, 0%, 0%)" fill-opacity="1">
<use xlink:href="#glyph-0-3" x="92.361001" y="80.842304"/>
</g>
<path fill="none" stroke-width="0.3985" stroke-linecap="butt" stroke-linejoin="miter" stroke="rgb(0%, 0%, 0%)" stroke-opacity="1" stroke-miterlimit="10" d="M 75.272983 -35.815684 L 94.806625 -35.815684 L 94.806625 -20.876812 L 75.272983 -20.876812 Z M 75.272983 -35.815684 " transform="matrix(0.998078, 0, 0, -0.998078, 8.867802, 73.354724)"/>
<g fill="rgb(0%, 0%, 0%)" fill-opacity="1">
<use xlink:href="#glyph-0-1" x="87.307733" y="104.297132"/>
</g>
<g fill="rgb(0%, 0%, 0%)" fill-opacity="1">
<use xlink:href="#glyph-1-0" x="94.76537" y="105.78826"/>
</g>
<path fill="none" stroke-width="0.3985" stroke-linecap="butt" stroke-linejoin="miter" stroke="rgb(100%, 100%, 100%)" stroke-opacity="1" stroke-miterlimit="10" d="M 164.107806 -6.434989 L 176.052641 -6.434989 L 176.052641 6.433497 L 164.107806 6.433497 Z M 164.107806 -6.434989 " transform="matrix(0.998078, 0, 0, -0.998078, 8.867802, 73.354724)"/>
<g fill="rgb(0%, 0%, 0%)" fill-opacity="1">
<use xlink:href="#glyph-2-0" x="175.971972" y="74.528464"/>
</g>
<path fill="none" stroke-width="0.3985" stroke-linecap="butt" stroke-linejoin="miter" stroke="rgb(100%, 100%, 100%)" stroke-opacity="1" stroke-miterlimit="10" d="M 248.066067 -6.724608 L 262.179133 -6.724608 L 262.179133 6.723116 L 248.066067 6.723116 Z M 248.066067 -6.724608 " transform="matrix(0.998078, 0, 0, -0.998078, 8.867802, 73.354724)"/>
<g fill="rgb(0%, 0%, 0%)" fill-opacity="1">
<use xlink:href="#glyph-0-4" x="259.76659" y="76.750185"/>
</g>
<path fill="none" stroke-width="0.3985" stroke-linecap="butt" stroke-linejoin="miter" stroke="rgb(0%, 0%, 0%)" stroke-opacity="1" stroke-miterlimit="10" d="M 94.787056 25.102195 L 160.507134 3.188979 " transform="matrix(0.998078, 0, 0, -0.998078, 8.867802, 73.354724)"/>
<path fill-rule="nonzero" fill="rgb(0%, 0%, 0%)" fill-opacity="1" d="M 172.460938 71.304688 C 171.519531 70.78125 170.070312 69.667969 169.160156 68.628906 L 168.21875 71.460938 C 169.570312 71.175781 171.390625 71.15625 172.460938 71.304688 "/>
<path fill="none" stroke-width="0.3985" stroke-linecap="butt" stroke-linejoin="miter" stroke="rgb(0%, 0%, 0%)" stroke-opacity="1" stroke-miterlimit="10" d="M 89.945718 -0.000745828 L 160.323187 -0.000745828 " transform="matrix(0.998078, 0, 0, -0.998078, 8.867802, 73.354724)"/>
<path fill-rule="nonzero" fill="rgb(0%, 0%, 0%)" fill-opacity="1" d="M 172.460938 73.355469 C 171.402344 73.15625 169.675781 72.558594 168.484375 71.863281 L 168.484375 74.847656 C 169.675781 74.148438 171.402344 73.554688 172.460938 73.355469 "/>
<path fill="none" stroke-width="0.3985" stroke-linecap="butt" stroke-linejoin="miter" stroke="rgb(0%, 0%, 0%)" stroke-opacity="1" stroke-miterlimit="10" d="M 95.006227 -25.029325 L 160.507134 -3.190471 " transform="matrix(0.998078, 0, 0, -0.998078, 8.867802, 73.354724)"/>
<path fill-rule="nonzero" fill="rgb(0%, 0%, 0%)" fill-opacity="1" d="M 172.460938 75.40625 C 171.390625 75.554688 169.570312 75.53125 168.21875 75.25 L 169.160156 78.078125 C 170.070312 77.042969 171.519531 75.929688 172.460938 75.40625 "/>
<path fill="none" stroke-width="0.3985" stroke-linecap="butt" stroke-linejoin="miter" stroke="rgb(0%, 0%, 0%)" stroke-opacity="1" stroke-miterlimit="10" d="M 1.216568 -6.920297 C 18.327584 -103.966216 236.7944 -103.966216 253.283127 -10.454434 " transform="matrix(0.998078, 0, 0, -0.998078, 8.867802, 73.354724)"/>
<path fill-rule="nonzero" fill="rgb(0%, 0%, 0%)" fill-opacity="1" d="M 262.285156 80.261719 C 261.90625 81.273438 261.019531 82.867188 260.125 83.921875 L 263.0625 84.4375 C 262.585938 83.144531 262.296875 81.34375 262.285156 80.261719 "/>
<path fill="none" stroke-width="0.3985" stroke-linecap="butt" stroke-linejoin="miter" stroke="rgb(0%, 0%, 0%)" stroke-opacity="1" stroke-miterlimit="10" d="M 1.216568 6.922719 C 12.683923 71.304287 157.669649 71.053806 168.295543 10.167237 " transform="matrix(0.998078, 0, 0, -0.998078, 8.867802, 73.354724)"/>
<path fill-rule="nonzero" fill="rgb(0%, 0%, 0%)" fill-opacity="1" d="M 177.457031 66.734375 C 177.46875 65.65625 177.761719 63.855469 178.242188 62.558594 L 175.304688 63.074219 C 176.195312 64.128906 177.078125 65.722656 177.457031 66.734375 "/>
<path fill="none" stroke-width="0.3985" stroke-linecap="butt" stroke-linejoin="miter" stroke="rgb(100%, 0%, 0%)" stroke-opacity="1" stroke-miterlimit="10" d="M 176.252244 -0.000745828 L 244.277535 -0.000745828 " transform="matrix(0.998078, 0, 0, -0.998078, 8.867802, 73.354724)"/>
<path fill-rule="nonzero" fill="rgb(100%, 0%, 0%)" fill-opacity="1" d="M 256.257812 73.355469 C 255.195312 73.15625 253.472656 72.558594 252.28125 71.863281 L 252.28125 74.847656 C 253.472656 74.148438 255.195312 73.554688 256.257812 73.355469 "/>
</svg>
